<svg xmlns="http://www.w3.org/2000/svg" xml:space="preserve" viewBox="0 0 30 30" id="trash">
  <path d="M3 7h1.087l1.917 21.091A1 1 0 0 0 7 29h16a1 1 0 0 0 .996-.909L25.913 7H27a1 1 0 1 0 0-2h-7V4c0-1.654-1.346-3-3-3h-4c-1.654 0-3 1.346-3 3v1H3a1 1 0 1 0 0 2zm9-3c0-.551.448-1 1-1h4c.552 0 1 .449 1 1v1h-6V4zm-1 3h12.905l-1.818 20H7.913L6.095 7H11z"></path>
  <path d="M10.999 25a.999.999 0 0 0 .998-1.071l-1-14a.992.992 0 0 0-1.068-.926 1 1 0 0 0-.926 1.069l1 14a.999.999 0 0 0 .996.928zM15 25a1 1 0 0 0 1-1V10a1 1 0 1 0-2 0v14a1 1 0 0 0 1 1zM18.929 24.997a1 1 0 0 0 1.068-.926l1-14a1 1 0 0 0-.926-1.069.992.992 0 0 0-1.068.926l-1 14a1 1 0 0 0 .926 1.069z"></path>
</svg>
