<svg xmlns="http://www.w3.org/2000/svg" enable-background="new 0 0 32 32" viewBox="0 0 32 32" id="upload-photo">
  <path d="M25.1348,16.603V19.5c0,0.5527,0.4473,1,1,1s1-0.4473,1-1V9.2256c0-2.9795-2.4248-5.4043-5.4043-5.4043H7.3594
			c-2.9805,0-5.4053,2.4248-5.4053,5.4043v13.5479c0,2.9805,2.4248,5.4053,5.4053,5.4053h11.9414c0.5527,0,1-0.4473,1-1
			s-0.4473-1-1-1H7.3594c-1.8779,0-3.4053-1.5273-3.4053-3.4053v-1.2627c1.4238-0.6355,2.4341-1.9003,3.2705-2.9639
			c0.624-0.793,1.2129-1.543,1.7607-1.7812c0.4443-0.1943,0.7812,0.0273,1.7969,1.2031c0.8965,1.0371,2.0234,2.3252,3.7549,2.1602
			c1.915-0.1826,3.0498-2.0342,4.1465-3.8262c0.9033-1.4756,1.8379-3.001,2.9102-3.001
			C22.6943,13.3018,24.2709,15.1646,25.1348,16.603z M16.9775,15.2588c-0.8398,1.3721-1.71,2.792-2.6299,2.8799
			c-0.6572,0.0527-1.2441-0.543-2.0518-1.4785c-0.9336-1.0791-2.2129-2.5547-4.1094-1.7285
			c-1.0098,0.4404-1.75,1.3818-2.5342,2.3789c-0.5349,0.6802-1.0819,1.3691-1.6982,1.8702V9.2256
			c0-1.877,1.5273-3.4043,3.4053-3.4043h14.3711c1.877,0,3.4043,1.5273,3.4043,3.4043v4.0572
			c-0.9613-1.0323-2.2049-1.981-3.541-1.981C19.4014,11.3018,18.1143,13.4043,16.9775,15.2588z"></path>
  <circle cx="8.287" cy="10.474" r="1.827"></circle>
  <path d="M27.5332,23.4785l-1.8991-1.8981c-0.0925-0.0928-0.2034-0.1664-0.3265-0.2173c-0.2443-0.101-0.5193-0.101-0.7636,0
			c-0.123,0.0509-0.234,0.1245-0.3265,0.2173l-1.8981,1.8981c-0.3906,0.3906-0.3906,1.0234,0,1.4141
			c0.1953,0.1953,0.4512,0.293,0.707,0.293s0.5117-0.0977,0.707-0.293l0.1924-0.1924v3.4795c0,0.5527,0.4473,1,1,1s1-0.4473,1-1
			v-3.4803l0.1934,0.1932c0.3906,0.3906,1.0234,0.3906,1.4141,0S27.9238,23.8691,27.5332,23.4785z"></path>
</svg>
